<svg width="881" height="862" viewBox="0 0 881 862" fill="none" xmlns="http://www.w3.org/2000/svg">
<path opacity="0.06" d="M209.425 554.13C209.425 554.13 183.501 500.279 226.645 466.981C269.79 433.674 190.663 399.864 219.214 358.504C247.765 317.144 344.838 350.666 342.391 274.044C339.944 197.422 421.518 176.67 448.437 199.816C475.357 222.963 479.06 335.781 556.335 323.673C633.61 311.557 706.211 471.426 644.215 553.915L209.425 554.13Z" fill="#2AF484"/>
<path d="M665.155 561.992C665.155 568.018 660.163 572.911 653.996 572.911H200.191C194.032 572.911 189.032 568.026 189.032 561.992C189.032 555.966 194.024 551.073 200.191 551.073H654.004C660.163 551.081 665.155 555.966 665.155 561.992Z" fill="#F7F7F7"/>
<path d="M311.401 488.467L296.579 435.294H336.11V482.76H363.959V490.67H362.613L364.179 551.536H361.039V490.007H317.47L312.078 551.536H309.386L311.401 488.467Z" fill="#C0C0C0"/>
<path d="M393.701 471.051C392.543 470.245 391.474 469.311 390.985 469.04C390.781 468.928 390.136 468.784 389.957 468.728C389.418 468.569 388.562 468.409 388.187 467.994L386.596 466.286C385.837 465.448 384.85 465.169 383.994 465.911C383.064 466.709 383.341 467.85 384.263 468.657L385.356 469.87C386.09 470.516 386.457 471.426 386.865 472.312C387.697 474.108 389.565 475.457 391.172 476.407C392.184 476.997 393.709 476.582 395.708 475.912C396.687 475.585 398.114 474.786 396.891 474.339C395.863 473.964 392.771 474.778 391.401 471.993C391.335 471.857 391.188 471.49 391.327 471.362C391.743 470.979 392.657 471.841 393.269 472.113C394.125 472.496 394.81 472.368 395.031 472.057C395.251 471.737 394.525 471.626 393.701 471.051Z" fill="#D4D4D4"/>
<path d="M350.165 409.865C350.165 409.865 352.718 439.875 361.887 450.004C367.418 456.11 380.926 466.573 384.059 468.976C384.459 469.279 385.013 469.295 385.429 469.008C385.69 468.824 385.992 468.601 386.253 468.377C386.514 468.154 386.824 467.819 387.093 467.507C387.55 466.989 387.526 466.214 387.053 465.711C383.545 461.976 369.783 447.194 368.111 443.307C366.194 438.846 362.89 412.531 359.856 408.716C356.821 404.901 350.997 404.071 350.165 409.865Z" fill="#AAAAAA"/>
<path d="M361.74 459.446L353.925 405.691L332.83 402.865L321.859 459.055L361.74 459.446Z" fill="#D4D4D4"/>
<path d="M362.548 458.073L353.925 405.691L332.83 402.857L321.492 458.169C321.279 459.207 321.965 460.22 323.033 460.412C326.957 461.138 336.436 462.663 347.032 462.663C354.945 462.663 359.391 461.154 361.414 460.204C361.815 460.019 362.143 459.71 362.347 459.325C362.552 458.941 362.622 458.501 362.548 458.073Z" fill="#C0C0C0"/>
<path d="M339.422 406.122C339.422 409.897 338.72 413.632 337.407 417.176C334.829 424.112 330.962 437.234 333.263 448.791C336.566 465.432 340.825 472.16 335.31 476.039C329.796 479.918 319.224 473.445 318.922 471.29C318.62 469.135 320.978 442.629 323.653 431.144C326.329 419.658 333.834 403.153 333.834 403.153L337.015 403.488C337.676 403.562 338.287 403.871 338.73 404.357C339.174 404.842 339.42 405.47 339.422 406.122ZM348.207 404.924C348.207 404.924 351.862 412.659 350.589 423.777C349.316 434.887 346.355 468.736 356.691 473.845C359.962 475.465 367.442 468.297 367.442 465.64C367.442 462.982 364.946 454.082 362.58 445.989C360.215 437.896 354.521 405.779 354.521 405.779L348.207 404.924Z" fill="#AAAAAA"/>
<path d="M345.262 380.948C340.555 380.948 338.802 384.229 338.712 390.294C338.679 392.569 339.723 394.82 340.564 396.257C341.192 397.326 341.363 398.587 341.004 399.768L339.968 403.193C339.267 406.369 340.808 408.109 343.084 408.74C344.21 409.051 345.564 408.812 346.543 408.189C347.709 407.447 347.807 405.858 347.595 404.509L347.326 403.536C346.967 402.219 347.742 400.806 349.104 400.511C352.726 399.737 353.248 396.041 354.219 390.294C355.222 384.308 349.969 380.948 345.262 380.948Z" fill="#D4D4D4"/>
<path d="M356.218 378.29L353.518 379.096C352.527 379.393 351.469 379.398 350.475 379.112L345.083 377.58C341.82 377.58 336.428 379.384 337.105 383.997L337.709 387.254C337.945 388.554 339.063 389.528 340.409 389.64C340.531 390.087 340.955 390.406 341.428 390.406C342.016 390.406 342.489 389.943 342.489 389.377C342.489 387.908 343.541 386.655 345.009 386.328C346.804 385.937 348.729 385.841 350.736 386.368C354.48 387.349 358.428 385.083 358.804 381.299C358.828 381.06 358.836 380.82 358.836 380.573C358.844 379.049 357.555 377.931 356.218 378.29Z" fill="#0B7044"/>
<path d="M341.298 390.406C341.298 391.811 340.759 392.952 339.381 392.952C337.994 392.952 337.105 391.021 337.105 389.616C337.105 388.211 337.994 387.86 339.381 387.86C340.768 387.86 341.298 389.001 341.298 390.406Z" fill="#D4D4D4"/>
<path d="M340.727 396.584C340.727 396.584 344.243 401.317 348.615 400.67C348.615 400.67 347.709 401.093 347.489 401.788C347.489 401.788 343.337 401.484 340.727 396.584Z" fill="#B9B9B9"/>
<path d="M298.276 504.853L293.177 511.821C292.14 513.238 291.311 514.791 290.714 516.434L289.776 519.02C289.001 521.143 286.374 521.949 284.498 520.64C279.644 517.248 271.324 511.485 269.178 510.001C268.827 509.761 268.648 509.29 268.868 508.923C270.165 506.76 275.525 511.501 281.308 512.938C285.713 514.031 291.595 505.89 293.74 502.051C294.556 500.599 296.522 500.247 297.819 501.317C298.337 501.741 298.672 502.341 298.757 502.997C298.842 503.653 298.67 504.316 298.276 504.853Z" fill="#D4D4D4"/>
<path d="M366.423 468.393C365.419 467.898 350.361 450.706 340.816 449.238C331.28 447.761 330.277 453.659 318.229 467.411C306.18 481.164 288.103 508.676 288.103 508.676L293.626 512.603C293.626 512.603 319.232 482.145 327.259 474.778C335.294 467.411 338.557 465.688 341.061 472.568C343.574 479.448 349.594 491.236 361.642 484.356C373.699 477.484 366.423 468.393 366.423 468.393Z" fill="#0B7044"/>
<path d="M343.867 530.721L346.886 540.522C347.016 540.953 347.22 541.368 347.473 541.743L349.61 544.848C350.964 546.819 349.994 549.517 347.669 550.211C347.669 550.211 343.353 551.696 338.908 553.125C334.356 554.585 328.629 553.364 328.629 552.191C328.629 549.581 331.117 551.656 335.286 548.926C336.681 548.016 338.125 547.059 339.405 546.069C342.995 543.315 339.862 536.34 337.668 532.413C336.876 531 337.717 529.244 339.324 528.909L340.36 528.693C341.901 528.382 343.419 529.26 343.867 530.721Z" fill="#D4D4D4"/>
<path d="M335.8 463.972C335.8 463.972 320.741 462.99 324.257 479.2C327.773 495.411 338.312 536.667 338.312 536.667H347.848L345.336 478.705C345.336 478.713 337.806 463.972 335.8 463.972ZM347.016 540.881C347.016 540.881 343.247 542.765 341.029 542.797C341.029 542.797 341.714 546.061 336.444 548.176C331.174 550.299 328.474 548.974 328.474 552.055C328.474 555.128 335.212 556.453 339.707 555.128C344.202 553.811 350.034 549.852 351.389 548.974C352.726 548.096 347.016 540.881 347.016 540.881ZM291.26 514.686C291.26 514.686 287.116 512.69 285.648 510.807C285.648 510.807 283.176 513.521 277.849 510.392C272.523 507.263 271.944 504.094 269.194 506.098C266.445 508.101 269.659 514.726 273.763 517.711C277.866 520.696 285.207 523.114 286.872 523.697C288.536 524.28 291.26 514.686 291.26 514.686Z" fill="#0B7044"/>
<path d="M333.638 403.065C333.638 403.065 326.296 423.019 327.112 435.789C327.928 448.559 327.92 458.975 320.578 450.97C313.236 442.964 318.139 402.267 333.638 403.065Z" fill="#AAAAAA"/>
<path d="M362.825 424.942C361.659 426.347 360.337 427.632 359.937 428.238C359.766 428.494 359.53 429.3 359.448 429.523C359.195 430.194 358.918 431.279 358.339 431.718L355.94 433.61C354.766 434.504 354.317 435.733 355.231 436.882C356.218 438.127 357.751 437.864 358.901 436.763L360.598 435.47C361.52 434.584 362.76 434.193 363.959 433.746C366.414 432.836 368.356 430.561 369.751 428.59C370.624 427.352 370.183 425.381 369.457 422.779C369.098 421.502 368.152 419.626 367.459 421.151C366.879 422.428 367.72 426.427 363.894 427.943C363.706 428.015 363.209 428.175 363.054 427.991C362.58 427.432 363.796 426.339 364.212 425.581C364.791 424.519 364.669 423.633 364.277 423.338C363.869 423.019 363.657 423.944 362.825 424.942Z" fill="#D4D4D4"/>
<path d="M318.106 445.439C318.106 445.439 319.909 460.5 328.401 454.928C336.901 449.357 352.4 442.174 356.479 438.981L360.557 435.789L358.037 430.577L318.106 445.439Z" fill="#AAAAAA"/>
<path d="M568.792 487.669L583.614 434.496H544.091V481.962H516.242V489.871H517.587L516.013 550.738H519.162V489.209H562.731L568.123 550.738H570.815L568.792 487.669Z" fill="#C0C0C0"/>
<path d="M531.349 424.774C536.652 424.774 540.95 419.35 540.95 412.659C540.95 405.967 536.652 400.543 531.349 400.543C526.046 400.543 521.748 405.967 521.748 412.659C521.748 419.35 526.046 424.774 531.349 424.774Z" fill="#0B7044"/>
<path d="M533.649 413.912C533.804 407.207 539.351 401.564 546.196 401.181C552.265 400.838 557.51 404.486 559.476 409.681C560.161 411.501 561.988 412.691 563.971 412.659C564.794 412.643 565.643 412.722 566.507 412.89C571.524 413.896 575.424 418.046 575.946 423.027C576.419 427.52 574.273 431.559 570.815 433.857C569.338 434.839 568.506 436.467 568.261 438.191C567.127 446.189 559.672 452.055 551.155 451.145C543.879 450.363 538.054 444.505 537.434 437.369C537.051 432.987 538.593 428.973 541.293 425.988C536.7 423.865 533.527 419.251 533.649 413.912ZM531.349 396.568C531.349 396.568 525.949 399.896 526.601 404.374C526.601 404.374 523.714 402.378 523.061 395.49C522.612 390.717 531.349 396.568 531.349 396.568Z" fill="#0B7044"/>
<path d="M528.021 423.873C527.89 427.76 527.629 431.67 527.066 435.605C526.479 439.524 525.655 443.491 524.13 447.33C523.371 449.246 522.433 451.121 521.258 452.885C520.092 454.649 518.648 456.277 516.951 457.602C515.263 458.935 513.362 459.981 511.372 460.667C509.373 461.354 507.317 461.697 505.286 461.832C504.699 461.872 504.193 461.433 504.152 460.867C504.12 460.34 504.487 459.885 504.992 459.781H505.001C508.68 459.023 512.024 457.371 514.398 454.881C516.796 452.406 518.265 449.174 519.162 445.758C520.059 442.326 520.459 438.702 520.614 435.031C520.704 433.195 520.728 431.343 520.712 429.484C520.704 427.624 520.671 425.756 520.606 423.889C520.572 422.927 520.929 421.992 521.599 421.289C522.269 420.585 523.197 420.17 524.179 420.135C525.161 420.1 526.117 420.448 526.838 421.102C527.558 421.757 527.984 422.664 528.021 423.625V423.873Z" fill="#D4D4D4"/>
<path d="M525.304 447.091C523.143 440.721 518.795 427.225 519.17 422.811C519.285 421.45 519.919 420.18 520.947 419.256C521.975 418.332 523.321 417.82 524.717 417.823H543.52C546.636 417.823 549.189 420.241 549.279 423.29C549.434 428.622 546.93 440.745 545.518 447.091H525.304Z" fill="#2AF484"/>
<path d="M547.664 455.168C546.693 452.496 546.399 449.634 546.807 446.827C547.754 440.306 549.418 428.023 549.263 422.811C549.223 421.472 548.651 420.201 547.669 419.268C546.686 418.335 545.37 417.813 544.001 417.815H541.211C540.151 420.225 537.899 422.085 534.4 422.085C530.909 422.085 528.657 420.225 527.597 417.815H524.978C527.825 423.777 526.797 431.639 521.903 436.228C522.816 439.373 523.575 442.541 524.146 445.103C524.921 448.575 524.578 452.199 523.183 455.487C520.777 461.13 518.876 470.181 519.439 473.765C539.221 479.248 552.893 469.543 552.893 469.543L547.664 455.168Z" fill="#2AF484"/>
<path d="M531.349 419.092L539.882 418.214L537.182 409.083L531.667 409.745L531.349 419.092Z" fill="#D4D4D4"/>
<path d="M531.667 409.745L537.182 409.075L538.022 411.924C536.79 413.289 535.199 416.226 533.193 416.226C532.556 416.226 531.977 416.051 531.455 415.723L531.667 409.745Z" fill="#C3C3C3"/>
<path d="M531.471 414.167C533.348 414.167 535.371 413.249 538.161 410.863C539.759 409.49 540.95 407.103 540.95 405.491V396.568H526.911C526.911 396.568 525.859 401.309 526.879 406.01C527.646 409.53 530.003 414.167 531.471 414.167Z" fill="#D4D4D4"/>
<path d="M538.568 403.799C538.568 405.539 539.417 406.952 540.469 406.952C541.521 406.952 542.68 404.669 542.68 402.929C542.68 401.189 541.521 400.646 540.469 400.646C539.425 400.646 538.568 402.059 538.568 403.799Z" fill="#D4D4D4"/>
<path d="M542.68 397.645C542.68 396.308 542.137 395.025 541.17 394.079C540.203 393.133 538.892 392.601 537.524 392.601H532.785C531.431 392.601 530.117 392.258 528.959 391.611C527.287 390.686 525.174 390.989 524.032 392.505C522.8 394.141 522.262 396.336 525.394 398.364C526.952 399.369 529.22 398.252 530.737 398.739C530.827 398.739 530.917 398.723 531.015 398.723H535.191C536.643 398.723 537.753 399.88 537.793 401.301C537.818 402.203 538.568 402.921 539.498 402.921H539.686L540.355 400.822L542.688 403.895V397.645H542.68Z" fill="#0B7044"/>
<path d="M501.387 457.682C501.387 457.682 506.298 458.241 506.624 459.765C506.942 461.29 506.877 462.367 504.625 462.91C502.374 463.453 499.029 463.141 497.055 462.567C495.081 461.992 492.202 459.662 492.055 459.207C491.541 457.57 495 458.983 496.713 459.59C498.418 460.196 500.416 460.707 500.473 459.821C500.539 458.935 497.178 458.017 496.908 456.98C496.639 455.942 501.387 457.682 501.387 457.682ZM516.005 459.805C516.005 459.805 520.883 459.023 521.625 460.404C522.36 461.785 522.596 462.838 520.589 463.964C518.575 465.089 515.271 465.696 513.215 465.672C511.159 465.648 507.725 464.179 507.464 463.788C506.51 462.351 510.238 462.782 512.049 462.902C513.86 463.022 515.923 462.982 515.736 462.112C515.548 461.242 512.057 461.266 511.51 460.34C510.956 459.414 516.005 459.805 516.005 459.805Z" fill="#D4D4D4"/>
<path d="M527.956 396.408C528.429 398.444 527.735 399.561 534.563 402.746C541.391 405.93 543.553 404.565 545.69 407.997C545.69 407.997 544.76 402.323 540.983 400.375C537.214 398.428 530.672 397.151 528.567 392.641C528.567 392.641 527.637 395.011 527.956 396.408Z" fill="#0B7044"/>
<path d="M548.545 421.622C549.589 422.971 550.421 424.208 551.278 425.541C552.118 426.858 552.925 428.191 553.676 429.563C555.16 432.317 556.49 435.182 557.518 438.223C558.521 441.264 559.231 444.505 559.207 447.961C559.182 449.685 558.946 451.465 558.391 453.204C557.861 454.944 556.939 456.621 555.748 458.033C554.565 459.454 553.129 460.619 551.62 461.513C550.103 462.415 548.52 463.07 546.93 463.572C545.339 464.075 543.74 464.387 542.149 464.65C540.559 464.857 538.976 465.017 537.402 465.057C531.112 465.288 525.003 464.522 519.015 463.421C518.436 463.317 518.061 462.774 518.167 462.208C518.265 461.689 518.738 461.338 519.26 461.362H519.276C522.278 461.505 525.264 461.617 528.241 461.561C531.21 461.521 534.163 461.37 537.035 460.97C539.906 460.571 542.704 459.949 545.217 458.951C547.713 457.938 549.866 456.485 551.139 454.617C552.436 452.774 552.917 450.499 552.803 448.04C552.672 445.574 551.946 442.988 550.968 440.466C549.997 437.928 548.724 435.43 547.297 433.011C546.588 431.793 545.842 430.595 545.062 429.42C544.67 428.829 544.27 428.254 543.862 427.68C543.471 427.121 543.03 426.506 542.663 426.036L542.631 425.988C541.399 424.391 541.725 422.117 543.357 420.911C544.988 419.706 547.313 420.025 548.545 421.622Z" fill="#D4D4D4"/>
<path d="M529.269 396.791C529.269 396.791 529.008 403.655 522.873 406.96C522.873 406.96 525.574 401.772 525.394 398.372C525.215 394.98 529.677 394.445 529.269 396.791Z" fill="#0B7044"/>
<path d="M504.217 529.507L502.015 539.069C501.346 541.99 501.762 545.063 503.206 547.705C504.014 549.182 503.296 551.018 501.681 551.576C496.46 553.396 486.345 556.86 485.896 556.485C483.596 554.577 489.673 551.433 494.168 548.128C497.194 545.901 498.352 535.517 498.622 527.552L503.443 528.741C503.818 528.853 504.111 529.14 504.217 529.507Z" fill="#C3C3C3"/>
<path d="M533.152 468.665L553.244 469.535C553.244 469.535 558.603 485.697 548.781 487.006C538.96 488.315 510.384 485.258 509.487 489.624C508.598 493.99 504.128 532.437 504.128 532.437H497.431C497.431 532.437 497.879 507.973 497.431 495.299C496.982 482.624 495.195 477.388 500.555 475.201C505.914 473.038 533.152 468.665 533.152 468.665Z" fill="#0B7044"/>
<path d="M509.96 506.688C509.96 506.688 511.111 516.266 511.429 517.878C511.69 519.211 512.636 520.265 513.525 521.303C513.811 521.638 514.023 522.292 514.202 522.851C514.349 523.298 514.227 523.769 513.957 524.152C509.112 530.84 499.78 531.575 499.739 530.96C499.658 529.859 501.477 528.167 503.54 527.632C505.621 527.089 507.195 525.421 507.831 523.41C508.337 521.813 508.419 520.113 508.068 518.477L506.387 511.126L509.96 506.688Z" fill="#C3C3C3"/>
<path d="M515.377 526.802C515.85 526.49 516.021 525.892 515.785 525.389C515.589 524.974 515.075 523.849 514.683 523.003C514.645 522.919 514.585 522.847 514.509 522.792C514.434 522.737 514.345 522.703 514.252 522.691C514.159 522.679 514.065 522.69 513.978 522.724C513.89 522.757 513.813 522.812 513.754 522.883C510.719 526.339 506.624 528.574 502.243 528.023C500.62 528.566 499.184 530.377 499.25 531.247C499.266 531.455 501.134 531.974 503.41 531.391C513.509 528.813 515.377 526.802 515.377 526.802ZM521.519 471.059L508.125 474.116L511.249 514.75L506.338 515.62C506.338 515.62 494.282 487.222 494.73 474.116C495.179 461.01 505.89 464.945 512.147 466.685C518.395 468.441 521.519 471.059 521.519 471.059ZM495.195 550.858C493.034 551.552 490.668 551.776 488.498 552.039C488.253 552.071 488.009 552.167 487.813 552.311C485.733 553.891 484.68 555.479 485.904 556.485C486.394 556.892 498.279 552.773 502.912 551.145C503.883 550.802 504.307 549.709 503.818 548.815L502.937 547.194C500.514 548.711 497.928 549.972 495.195 550.858ZM379.401 455.759H489.444V459.717H379.401V455.759Z" fill="#0B7044"/>
<path d="M384.793 459.717H387.036V551.568H384.793V459.717ZM481.36 459.717H483.604V551.568H481.36V459.717Z" fill="#7AC29A"/>
<path d="M618.796 551.64C618.796 553.212 617.491 554.482 615.892 554.482H604.676C603.069 554.482 601.772 553.204 601.772 551.64V526.043C601.772 524.471 603.077 523.202 604.676 523.202H615.892C617.499 523.202 618.796 524.479 618.796 526.043V551.64Z" fill="#AAAAAA"/>
<path opacity="0.4" d="M611.626 493.734C611.626 493.734 602.449 511.988 615.974 515.101C629.499 518.214 629.891 504.438 628.504 498.763C627.117 493.088 648.579 477.827 630.878 464.331C613.176 450.834 599.382 486.767 611.626 493.734Z" fill="#2AF484"/>
<path opacity="0.4" d="M594.536 503.639C594.536 503.639 594.104 515.652 602.164 514.127C610.223 512.603 607.025 505.084 604.872 502.354C602.718 499.625 610.517 486.32 597.636 483.231C584.764 480.15 586.216 502.793 594.536 503.639Z" fill="#2AF484"/>
<path d="M595.907 492.322L605.875 523.202M601.723 498.603L599.61 503.791L594.805 501.197M622.435 474.85L613.886 523.202M627.451 482.161L620.371 486.535L615.827 480.533M625.518 492.298L618.429 496.68L613.886 490.678" stroke="#1A4331" stroke-miterlimit="10"/>
<path d="M245.187 551.64C245.187 553.212 243.882 554.482 242.283 554.482H231.067C229.46 554.482 228.163 553.204 228.163 551.64V526.043C228.163 524.471 229.468 523.202 231.067 523.202H242.283C243.89 523.202 245.187 524.479 245.187 526.043V551.64Z" fill="#AAAAAA"/>
<path opacity="0.4" d="M238.017 493.734C238.017 493.734 228.84 511.988 242.365 515.101C255.89 518.214 256.281 504.438 254.895 498.763C253.508 493.088 274.97 477.827 257.268 464.331C239.567 450.834 225.773 486.767 238.017 493.734Z" fill="#2AF484"/>
<path opacity="0.4" d="M220.927 503.639C220.927 503.639 220.495 515.652 228.554 514.127C236.614 512.603 233.416 505.084 231.263 502.354C229.109 499.625 236.907 486.32 224.027 483.231C211.146 480.142 212.607 502.793 220.927 503.639Z" fill="#2AF484"/>
<path d="M222.298 492.322L232.266 523.202M228.114 498.603L226.001 503.791L221.196 501.197M248.825 474.85L240.276 523.202M253.842 482.161L246.762 486.535L242.218 480.533M251.909 492.298L244.82 496.68L240.276 490.678" stroke="#1A4331" stroke-miterlimit="10"/>
<path d="M415.22 330.585H344.332C342.464 330.585 340.947 332.07 340.947 333.897V358.249C340.947 360.077 342.464 361.561 344.332 361.561H349.21V372.376L362.752 361.561H415.22C417.088 361.561 418.605 360.077 418.605 358.249V333.897C418.605 333.019 418.248 332.177 417.613 331.556C416.979 330.935 416.118 330.586 415.22 330.585ZM346.07 345.095H388.284V346.492H346.07V345.095ZM410.309 351.481H346.07V350.084H410.309V351.481ZM410.309 341.703H346.07V340.306H410.309V341.703Z" fill="#AAAAAA"/>
<path d="M460.037 343.475V367.827C460.037 369.654 461.554 371.139 463.422 371.139H515.891L529.432 381.954V371.139H534.31C536.178 371.139 537.696 369.654 537.696 367.827V343.475C537.696 341.647 536.178 340.163 534.31 340.163H463.422C461.554 340.163 460.037 341.639 460.037 343.475ZM532.573 356.07H490.358V354.673H532.573V356.07ZM468.333 359.662H532.573V361.058H468.333V359.662ZM468.333 349.884H532.573V351.281H468.333V349.884Z" fill="#2AF484"/>
<path opacity="0.4" d="M221.763 444.158C222.867 438.53 220.892 433.429 217.352 432.765C213.812 432.1 210.049 436.124 208.945 441.752C207.842 447.38 209.817 452.481 213.356 453.145C216.896 453.809 220.66 449.786 221.763 444.158Z" fill="#AAAAAA"/>
<path opacity="0.4" d="M222.547 439.16C225.095 436.666 224.775 432.31 221.831 429.43C218.888 426.55 214.436 426.237 211.887 428.73C209.339 431.224 209.659 435.58 212.602 438.46C215.546 441.34 219.998 441.654 222.547 439.16Z" fill="#AAAAAA"/>
<path opacity="0.4" d="M643.487 444.151C644.591 438.523 642.616 433.422 639.076 432.758C635.536 432.093 631.772 436.117 630.669 441.745C629.566 447.373 631.541 452.473 635.08 453.138C638.62 453.802 642.384 449.778 643.487 444.151Z" fill="#AAAAAA"/>
<path opacity="0.4" d="M644.282 439.163C646.83 436.669 646.51 432.313 643.566 429.433C640.623 426.553 636.171 426.239 633.622 428.733C631.074 431.227 631.394 435.583 634.337 438.463C637.281 441.343 641.733 441.656 644.282 439.163Z" fill="#AAAAAA"/>
<path d="M314.876 596.217H225.144C223.342 596.217 221.881 594.788 221.881 593.024C221.881 591.26 223.342 589.831 225.144 589.831H314.876C316.679 589.831 318.139 591.26 318.139 593.024C318.139 594.788 316.679 596.217 314.876 596.217ZM465.788 596.217H376.056C374.254 596.217 372.794 594.788 372.794 593.024C372.794 591.26 374.254 589.831 376.056 589.831H465.788C467.591 589.831 469.051 591.26 469.051 593.024C469.051 594.788 467.591 596.217 465.788 596.217ZM624.857 596.217H535.126C533.323 596.217 531.863 594.788 531.863 593.024C531.863 591.26 533.323 589.831 535.126 589.831H624.857C626.66 589.831 628.12 591.26 628.12 593.024C628.12 594.788 626.66 596.217 624.857 596.217ZM393.187 613.776H303.456C301.653 613.776 300.193 612.347 300.193 610.583C300.193 608.819 301.653 607.391 303.456 607.391H393.187C394.99 607.391 396.45 608.819 396.45 610.583C396.45 612.347 394.99 613.776 393.187 613.776ZM548.994 613.776H459.262C457.459 613.776 455.999 612.347 455.999 610.583C455.999 608.819 457.459 607.391 459.262 607.391H548.994C550.796 607.391 552.256 608.819 552.256 610.583C552.256 612.347 550.796 613.776 548.994 613.776Z" fill="#C0C0C0"/>
</svg>
