<?xml version="1.0" encoding="utf-8"?>
<!-- Generator: Adobe Illustrator 24.2.0, SVG Export Plug-In . SVG Version: 6.00 Build 0)  -->
<svg version="1.1" id="Layer_1" focusable="false" xmlns="http://www.w3.org/2000/svg" xmlns:xlink="http://www.w3.org/1999/xlink"
	 x="0px" y="0px" viewBox="0 0 640 512" style="enable-background:new 0 0 640 512;" xml:space="preserve">
<style type="text/css">
	.st0{opacity:0.4;fill:#5F9EFF;enable-background:new    ;}
	.st1{fill:#5F9EFF;}
</style>
<g>
	<path class="st0" d="M319.5,0C217.4,0.3,144,83,144,176c-0.1,42.6,15.4,83.8,43.6,115.8c16.5,18.9,42.4,58.2,52.2,91.4
		c0,0.3,0.1,0.5,0.1,0.8h160.2c0-0.3,0.1-0.5,0.1-0.8c9.9-33.2,35.7-72.6,52.2-91.4c28.1-32,43.6-73.2,43.6-115.8
		C496,78.6,416.9-0.3,319.5,0z M320,96c-44.2,0-80,35.8-80,80c0,8.8-7.2,16-16,16s-16-7.2-16-16c0.1-61.8,50.2-111.9,112-112
		c8.8,0,16,7.2,16,16S328.8,96,320,96z"/>
	<path class="st1" d="M240.1,454.3c0,6.3,1.9,12.4,5.4,17.7l17.1,25.7c5.2,7.9,17.2,14.3,26.6,14.3h61.7c9.5,0,21.4-6.4,26.6-14.3
		l17.1-25.7c3.2-5.3,5.1-11.4,5.4-17.7V416H240L240.1,454.3z M112,192c0-13.3-10.7-24-24-24H24c-13.3,0-24,10.7-24,24s10.7,24,24,24
		h64C101.3,216,112,205.3,112,192z M616,168h-64c-13.3,0-24,10.7-24,24s10.7,24,24,24h64c13.3,0,24-10.7,24-24S629.3,168,616,168z
		 M131.1,55.2l-55.4-32c-11.4-6.8-26.1-3.2-32.9,8.2s-3.2,26.1,8.2,32.9c0.3,0.2,0.5,0.3,0.8,0.4l55.4,32
		c11.4,6.8,26.1,3.2,32.9-8.2c6.8-11.4,3.2-26.1-8.2-32.9C131.6,55.5,131.3,55.4,131.1,55.2z M588.3,319.2l-55.4-32
		c-11.4-6.8-26.1-3.2-32.9,8.2c-6.8,11.4-3.2,26.1,8.2,32.9c0.3,0.2,0.5,0.3,0.8,0.4l55.4,32c11.6,6.4,26.2,2.2,32.6-9.4
		C603.2,340.1,599.4,325.9,588.3,319.2z M107.1,287.2l-55.4,32c-11.6,6.4-15.8,21-9.4,32.6s21,15.8,32.6,9.4
		c0.3-0.1,0.5-0.3,0.8-0.4l55.4-32c11.4-6.8,15-21.6,8.2-32.9C132.6,284.8,118.4,281,107.1,287.2z M520.9,100c4.2,0,8.4-1.1,12-3.2
		l55.4-32c11.4-6.8,15-21.6,8.2-32.9c-6.7-11.1-20.9-14.9-32.2-8.6l-55.4,32c-11.5,6.6-15.4,21.3-8.8,32.8
		C504.5,95.4,512.4,100,520.9,100z"/>
</g>
</svg>
